<?xml version="1.0" encoding="utf-8"?>
<!-- Generator: Adobe Illustrator 16.0.0, SVG Export Plug-In . SVG Version: 6.00 Build 0)  -->
<!DOCTYPE svg PUBLIC "-//W3C//DTD SVG 1.1//EN" "http://www.w3.org/Graphics/SVG/1.1/DTD/svg11.dtd">
<svg version="1.1" xmlns="http://www.w3.org/2000/svg" xmlns:xlink="http://www.w3.org/1999/xlink" x="0px" y="0px" width="528px"
	 height="528px" viewBox="0 0 528 528" enable-background="new 0 0 528 528" xml:space="preserve">
<g id="color">
	<path id="color_1_" fill="#0073AA" d="M264,15.84c49.631,0,97.944,14.784,138.864,42.504
		c39.864,26.927,71.277,64.944,90.021,109.295c32.736,77.352,24.023,165.792-22.969,235.224
		c-26.928,39.862-64.944,71.276-109.295,90.022c-77.354,32.734-165.793,24.022-235.225-22.969
		c-39.864-26.929-71.28-64.943-90.024-109.297C2.64,283.271,11.352,194.831,58.344,125.4c26.927-39.865,64.944-71.28,109.296-90.024
		C198,22.44,231,15.84,264,15.84 M264,0C118.271,0,0,118.271,0,264c0,145.729,118.271,264,264,264c145.729,0,264-118.271,264-264
		C528,118.271,409.729,0,264,0 M44.088,264c0,84.217,48.047,161.303,124.08,198L63.096,174.504
		C50.424,202.752,44.088,233.111,44.088,264 M412.631,252.911c0-27.191-9.767-45.936-18.216-60.72
		c-8.447-14.783-21.647-33.527-21.647-51.479s15.313-39.072,36.96-39.072h2.903c-89.496-82.104-228.623-76.031-310.727,13.729
		c-7.92,8.712-15.313,17.952-21.648,27.721h14.256c22.968,0,58.608-2.904,58.608-2.904c11.88-0.793,13.2,16.631,1.32,18.216
		c0,0-11.88,1.319-25.08,2.111l79.992,238.392L257.4,254.496l-34.32-93.984c-11.88-0.792-22.969-2.111-22.969-2.111
		c-11.88-0.792-10.56-18.745,1.32-18.216c0,0,36.433,2.904,57.817,2.904c21.383,0,58.607-2.904,58.607-2.904
		c11.88-0.793,13.197,16.631,1.317,18.216c0,0-11.88,1.319-25.079,2.111l79.463,236.542l22.704-71.809
		c10.032-31.417,16.104-53.592,16.104-72.6 M267.695,283.009l-66,191.929c44.353,12.937,91.61,11.883,135.168-3.435l-1.584-2.903
		L267.695,283.009z M456.984,158.4c1.056,7.391,1.584,15.048,1.584,22.704c0,22.439-4.227,47.52-16.636,78.671L374.615,454.08
		C477.576,394.15,514.271,262.944,456.984,158.4"/>
</g>
<g id="mask">
	<path id="mask_1_" fill="#FFFFFF" d="M264,15.84c49.631,0,97.944,14.784,138.864,42.504
		c39.864,26.927,71.277,64.944,90.021,109.295c32.736,77.352,24.023,165.792-22.969,235.224
		c-26.928,39.862-64.944,71.276-109.295,90.022c-77.354,32.734-165.793,24.022-235.225-22.969
		c-39.864-26.929-71.28-64.943-90.024-109.297C2.64,283.271,11.352,194.831,58.344,125.4c26.927-39.865,64.944-71.28,109.296-90.024
		C198,22.44,231,15.84,264,15.84 M264,0C118.271,0,0,118.271,0,264c0,145.729,118.271,264,264,264c145.729,0,264-118.271,264-264
		C528,118.271,409.729,0,264,0 M44.088,264c0,84.217,48.047,161.303,124.08,198L63.096,174.504
		C50.424,202.752,44.088,233.111,44.088,264 M412.631,252.911c0-27.191-9.767-45.936-18.216-60.72
		c-8.447-14.783-21.647-33.527-21.647-51.479s15.313-39.072,36.96-39.072h2.903c-89.496-82.104-228.623-76.031-310.727,13.729
		c-7.92,8.712-15.313,17.952-21.648,27.721h14.256c22.968,0,58.608-2.904,58.608-2.904c11.88-0.793,13.2,16.631,1.32,18.216
		c0,0-11.88,1.319-25.08,2.111l79.992,238.392L257.4,254.496l-34.32-93.984c-11.88-0.792-22.969-2.111-22.969-2.111
		c-11.88-0.792-10.56-18.745,1.32-18.216c0,0,36.433,2.904,57.817,2.904c21.383,0,58.607-2.904,58.607-2.904
		c11.88-0.793,13.197,16.631,1.317,18.216c0,0-11.88,1.319-25.079,2.111l79.463,236.542l22.704-71.809
		c10.032-31.417,16.104-53.592,16.104-72.6 M267.695,283.009l-66,191.929c44.353,12.937,91.61,11.883,135.168-3.435l-1.584-2.903
		L267.695,283.009z M456.984,158.4c1.056,7.391,1.584,15.048,1.584,22.704c0,22.439-4.227,47.52-16.636,78.671L374.615,454.08
		C477.576,394.15,514.271,262.944,456.984,158.4"/>
</g>
</svg>
